<?xml version="1.0" encoding="UTF-8" standalone="no"?>
<!-- Generator: Adobe Illustrator 16.0.0, SVG Export Plug-In . SVG Version: 6.00 Build 0)  -->

<svg
   version="1.1"
   id="Layer_1"
   x="0px"
   y="0px"
   width="16"
   height="16"
   viewBox="0 0 16 16"
   enable-background="new 0 0 1024 1024"
   xml:space="preserve"
   sodipodi:docname="Player_final.svg"
   inkscape:version="1.4.3 (0d15f75042, 2025-12-25)"
   xmlns:inkscape="http://www.inkscape.org/namespaces/inkscape"
   xmlns:sodipodi="http://sodipodi.sourceforge.net/DTD/sodipodi-0.dtd"
   xmlns="http://www.w3.org/2000/svg"
   xmlns:svg="http://www.w3.org/2000/svg"><defs
   id="defs1" /><sodipodi:namedview
   id="namedview1"
   pagecolor="#ffffff"
   bordercolor="#000000"
   borderopacity="0.25"
   inkscape:showpageshadow="2"
   inkscape:pageopacity="0.0"
   inkscape:pagecheckerboard="0"
   inkscape:deskcolor="#d1d1d1"
   inkscape:zoom="18.078125"
   inkscape:cx="4.0656871"
   inkscape:cy="5.4485739"
   inkscape:window-width="2560"
   inkscape:window-height="1366"
   inkscape:window-x="0"
   inkscape:window-y="0"
   inkscape:window-maximized="1"
   inkscape:current-layer="Layer_1" />
<rect
   fill="none"
   width="16"
   height="16"
   id="rect1"
   x="0.031388868"
   y="0.017383356"
   style="stroke-width:0.015625" />

<path
   style="fill:#fc7f7f;stroke-width:0.019557"
   d="M 7.8096458,9.6705707 C 6.9072353,9.5901707 6.0825753,8.9808408 5.7404453,8.1416008 c -0.12586,-0.30872 -0.16837,-0.51371 -0.17933,-0.86483 -0.0112,-0.35928 0.0166,-0.56949 0.11383,-0.85974 0.12914,-0.38555 0.30843,-0.67397 0.60352,-0.9709 0.4869,-0.48991 1.0837405,-0.7411 1.7609205,-0.7411 0.40354,0 0.74762,0.082 1.11396,0.26535 0.47989,0.24024 0.8731002,0.63407 1.1142902,1.11607 0.1926,0.38489 0.264469,0.72707 0.250009,1.19032 -0.0106,0.34135 -0.0491,0.53376 -0.168409,0.84247 -0.27392,0.70887 -0.9436402,1.2936799 -1.7005702,1.4849799 -0.14955,0.0378 -0.60162,0.0971 -0.6484,0.085 -0.005,-10e-4 -0.0912,-0.01 -0.19062,-0.0186 z"
   id="path2" /><path
   style="fill:#fc7f7f;stroke-width:0.019557"
   d="m 7.4754143,15.977757 c -1.4374804,-0.11424 -2.6951504,-0.53966 -3.8625004,-1.30654 -1.35884,-0.89267 -2.4315,-2.2072 -3.02995897,-3.71319 -0.26939,-0.67789 -0.45177,-1.42052 -0.52929,-2.15522 -0.0571,-0.54132 -0.0442,-1.30178 0.0316,-1.85791 0.30477,-2.237371 1.50955897,-4.204811 3.37395897,-5.509721 2.2219,-1.55512003 5.1546804,-1.85577003 7.6687811,-0.78616003 2.46398,1.04828003 4.25378,3.28369003 4.73552,5.91451103 0.097,0.52972 0.11824,0.788 0.11824,1.43744 0,0.65041 -0.0215,0.91082 -0.11857,1.43744 -0.41133,2.23094 -1.72122,4.14497 -3.67451,5.36927 -0.28806,0.18056 -0.89737,0.48711 -1.22005,0.61383 -0.675959,0.26546 -1.3336907,0.43181 -2.0557407,0.51992 -0.25247,0.0308 -1.20421,0.0549 -1.43744,0.0363 z m 5.3026107,-3.54292 c 0.97381,-0.97021 1.57026,-2.22724 1.76046,-3.71026 0.0491,-0.38282 0.0494,-1.32178 6e-4,-1.67212 -0.21443,-1.538361 -0.86706,-2.845781 -1.9439,-3.894251 -1.00683,-0.98032 -2.216149,-1.57627 -3.6529907,-1.80021 -0.32938,-0.0513 -1.18715,-0.0714 -1.55156,-0.0364 -1.9731704,0.18989 -3.7396604,1.23689 -4.8527804,2.87626 -0.55149,0.81223 -0.90236,1.71711 -1.05756,2.727461 -0.06,0.39027 -0.075,1.19703 -0.0297,1.59389 0.15634,1.3706999 0.72765,2.63794 1.7012,3.7735 0.19621,0.22886 0.58872,0.62682 0.61823,0.62682 0.0121,0 0.0189,-0.59472 0.0189,-1.63661 v -1.63661 l 0.043,-0.0893 c 0.0564,-0.117 0.21572,-0.27464 0.33833,-0.33473 l 0.0978,-0.0479 0.84779,-0.005 0.84779,-0.005 0.19885,0.19128 c 0.98355,0.94609 2.0638604,1.1225 3.0921104,0.5049299 C 9.5012743,9.712437 9.6819243,9.570767 9.922074,9.337157 l 0.178072,-0.17323 0.809559,0.006 c 0.78599,0.006 0.81185,0.007 0.88827,0.0479 0.10431,0.0559 0.25593,0.22027 0.30892,0.33496 0.0426,0.0922 0.0426,0.0933 0.048,1.7603 l 0.005,1.66805 0.19692,-0.16102 c 0.10831,-0.0885 0.29763,-0.26135 0.42073,-0.38399 z"
   id="path3" /></svg>
